grf
version=1
nRows=14
nColumns=28
inDegrees=no
endheader
time	ground_force_1_vx	ground_force_1_vy	ground_force_1_vz	ground_force_1_px	ground_force_1_py	ground_force_1_pz	ground_moment_1_mx	ground_moment_1_my	ground_moment_1_mz	ground_force_2_vx	ground_force_2_vy	ground_force_2_vz	ground_force_2_px	ground_force_2_py	ground_force_2_pz	ground_moment_2_mx	ground_moment_2_my	ground_moment_2_mz	ground_force_3_vx	ground_force_3_vy	ground_force_3_vz	ground_force_3_px	ground_force_3_py	ground_force_3_pz	ground_moment_3_mx	ground_moment_3_my	ground_moment_3_mz
      0.91000000	     11.59402864	     -7.35633666	    -38.45293045	    607.06288060	   -903.60847599	      1.22873190	      0.27447272	      0.99249691	    543.83486484	      1.97311383	     -5.41550624	      2.31937349	    256.91726157	  -1715.18215429	      0.16336635	      0.04013684	      0.51908729	   -622.00850268	    -21.81528549	      4.88613877	   -456.07974607	    604.26749003	   -839.67862923	      1.56526164	     -0.74288894	      5.45720786	   2657.33359460
      0.92000000	     10.85769670	     -1.33965227	    -30.46929492	    608.78767648	   -905.61021796	      1.23151457	      0.20387904	      0.73722924	    403.96192594	      2.16925036	     -5.68607767	      1.27057729	     39.79943115	  -1523.01926045	      0.30972270	      0.10090466	      1.30499370	  -1563.73925943	    -21.76757749	      4.93894029	   -488.06159674	    603.11495894	   -838.37962808	      1.56227175	     -0.91366384	      6.71170784	   3268.19999810
      0.93000000	     10.08571934	      1.97252577	    -24.61764763	    616.72024312	   -897.98807396	      1.21360063	      0.19713985	      0.71286026	    390.60903580	      2.01200141	     -5.41455880	      2.23122613	    227.85125833	  -1657.98579915	      0.20922309	      0.04909640	      0.63496069	   -760.85651513	    -22.12881885	      7.94880215	   -525.70967417	    602.32648313	   -837.03936842	      1.55929891	     -1.03725264	      7.61958214	   3710.28044138
      0.94000000	      9.11361062	      3.95160984	    -20.66184317	    621.15438543	   -905.54340378	      1.22515117	      0.13668086	      0.49423976	    270.81677714	      2.32416046	     -5.41303748	      1.61708314	    164.95048348	  -1705.54012439	      0.16547854	      0.07115640	      0.92026130	  -1102.72465734	    -22.57922781	     13.16422811	   -569.17512797	    601.36133084	   -835.96378001	      1.55682022	     -1.19690581	      8.79238265	   4281.36409653
      0.95000000	      8.26344663	      5.28339065	    -18.05327028	    620.66293950	   -900.27429925	      1.21578311	      0.16098672	      0.58213005	    318.97592246	      2.32449892	     -5.49102792	      1.88024359	    132.43722409	  -1604.46725554	      0.24772928	      0.06985941	      0.90348746	  -1082.62501013	    -24.26486876	     20.77956965	   -617.44016612	    601.18959307	   -835.43106958	      1.55567821	     -1.34433768	      9.87540636	   4808.73182204
      0.96000000	      7.09168342	      5.72736951	    -15.91465926	    623.65002282	   -914.99672443	      1.24114391	      0.06759544	      0.24442600	    133.93228598	      2.16793385	     -5.37481103	      2.05276168	    176.46655966	  -1716.05869897	      0.15744354	      0.07112673	      0.91987753	  -1102.26479354	    -27.53214552	     29.16787163	   -671.04941510	    601.12289102	   -834.45217300	      1.55364927	     -1.52513289	     11.20351475	   5455.44111337
      0.97000000	      5.76160807	      5.20878918	    -11.32593392	    638.63814875	   -870.63212756	      1.15261417	      0.14291752	      0.51679160	    283.17397057	      1.81795430	     -5.60984595	      1.52667504	    104.41735050	  -1587.26719483	      0.26027526	      0.08823165	      1.14109444	  -1367.34314245	    -30.38211747	     40.80301460	   -726.31514634	    600.79781642	   -834.36575736	      1.55338092	     -1.63047930	     11.97738181	   5832.26805541
      0.98000000	      5.15908474	      4.16501976	     -8.63302334	    644.94575238	   -879.36230205	      1.16536327	      0.11952050	      0.43218766	    236.81556796	      2.20908400	     -5.80219209	      1.00332265	   -178.98982883	  -1374.90703937	      0.41920940	      0.16145778	      2.08812346	  -2502.14283835	    -32.79983217	     52.91238261	   -783.15319469	    600.52630784	   -833.27368060	      1.55106228	     -1.81204699	     13.31116479	   6481.74053536
      0.99000000	      4.03321305	      2.55835671	     -4.43686214	    684.06597984	   -823.28728775	      1.04328262	      0.20605498	      0.74509746	    408.27329041	      1.89573623	     -5.56933188	      1.00290165	    -81.36956073	  -1378.82793327	      0.42223651	      0.13369773	      1.72910447	  -2071.93993153	    -34.58769880	     65.45695010	   -841.80474522	    599.64842095	   -831.83914740	      1.54787084	     -2.04385957	     15.01404307	   7310.94033205
      1.00000000	      1.04958137	      0.66690766	      0.71359539	   -157.19448714	  -1631.59476561	      2.94302424	     -0.03732710	     -0.13497527	    -73.95917911	      2.16829763	     -5.41291009	      1.61189065	     71.14071764	  -1735.95000990	      0.13404712	      0.11169647	      1.44456350	  -1730.98205020	    -34.76623758	     79.67493667	   -899.74660813	    599.43181558	   -830.51897177	      1.54509912	     -2.23059254	     16.38576980	   7978.88914762
      1.01000000	      0.04076689	      0.26345668	      1.82177434	    333.72292518	  -1238.80959102	      1.97842718	      0.01851006	      0.06693261	     36.67546595	      2.08990304	     -5.29675872	      1.79049989	    212.93977434	  -1662.86521561	      0.20418885	      0.04675684	      0.60470335	   -724.59995050	    -37.40153111	     95.35790558	   -951.88096847	    599.08322255	   -829.29887196	      1.54249602	     -2.35739100	     17.31722202	   8432.45062952
      1.02000000	      0.36390931	      0.14116441	      1.03088865	    190.59816276	  -1292.09075090	      2.14790000	      0.00960000	      0.03471374	     19.02126022	      1.93327395	     -5.18004366	      1.69931453	    102.66111862	  -1643.56106526	      0.21318278	      0.08527575	      1.10286593	  -1321.53492876	    -41.64064777	    108.03062855	   -999.92130305	    598.62757497	   -827.82871458	      1.53934947	     -2.40560809	     17.67142128	   8604.92446668
      1.03000000	      0.28343783	     -0.02031078	      1.02961936	    268.07325247	  -1377.08491478	      2.26391251	     -0.04716660	     -0.17055503	    -93.45497150	      2.16759620	     -5.25680387	      1.43587740	     23.52898144	  -1662.91152298	      0.19192794	      0.11461827	      1.48235091	  -1776.26169836	    -45.78703835	    125.23256395	  -1041.68158703	    598.52241895	   -826.07106291	      1.53571049	     -2.33006305	     17.11647290	   8334.69782002
      1.04000000	      0.56609424	      0.06016893	      0.95149570	    208.59985377	  -1246.16673808	      2.05500340	      0.01284379	      0.04644329	     25.44842356	      2.20672545	     -5.25641441	      1.35029695	     29.55447326	  -1671.30143830	      0.18531508	      0.11220066	      1.45108413	  -1738.79554876	    -50.76741644	    143.07512136	  -1078.02688050	    597.87174921	   -824.35200351	      1.53199825	     -2.19253806	     16.10622440	   7842.76727017
